<?xml version="1.0" encoding="UTF-8"?>
<!-- Generated by Pixelmator Pro 3.5.11 -->
<svg width="389" height="323" viewBox="0 0 389 323" xmlns="http://www.w3.org/2000/svg">
    <g id="Group">
        <radialGradient id="radialGradient1" cx="129.903177" cy="70.017633" r="10.709439" fx="129.903177" fy="70.017633" gradientUnits="userSpaceOnUse">
            <stop offset="0" stop-color="#000000" stop-opacity="1"/>
            <stop offset="1" stop-color="#131313" stop-opacity="1"/>
        </radialGradient>
        <path id="Oval-copy" fill="url(#radialGradient1)" fill-opacity="0.707813" fill-rule="evenodd" stroke="none" d="M 147.906738 69.24115 C 146.262451 56.088684 136.898315 46.211426 126.991333 47.179565 C 117.084229 48.147766 110.385742 59.594849 112.030029 72.747314 C 113.674194 85.89978 123.038452 95.777161 132.945435 94.808899 C 142.852417 93.840698 149.550903 82.393677 147.906738 69.24115 Z"/>
        <radialGradient id="radialGradient2" cx="185.745881" cy="56.893157" r="12.129512" fx="185.745881" fy="56.893157" gradientUnits="userSpaceOnUse">
            <stop offset="0" stop-color="#000000" stop-opacity="1"/>
            <stop offset="1" stop-color="#131313" stop-opacity="1"/>
        </radialGradient>
        <path id="Path" fill="url(#radialGradient2)" fill-opacity="0.707813" fill-rule="evenodd" stroke="none" d="M 205.180054 62.945557 C 209.218384 46.748535 203.629761 31.437134 192.697754 28.746521 C 181.765503 26.055969 169.629517 37.005127 165.591187 53.202087 C 161.552979 69.399048 167.141479 84.710449 178.073608 87.401062 C 189.005737 90.091614 201.141724 79.142517 205.180054 62.945557 Z"/>
        <radialGradient id="radialGradient3" cx="243.557592" cy="82.674922" r="14.993624" fx="243.557592" fy="82.674922" gradientUnits="userSpaceOnUse">
            <stop offset="0" stop-color="#000000" stop-opacity="1"/>
            <stop offset="1" stop-color="#131313" stop-opacity="1"/>
        </radialGradient>
        <path id="path1" fill="url(#radialGradient3)" fill-opacity="0.707813" fill-rule="evenodd" stroke="none" d="M 258.135986 95.674744 C 267.727173 82.302612 268.636719 66.067261 260.167603 59.412109 C 251.698486 52.756958 237.057739 58.202148 227.466797 71.574219 C 217.87561 84.94635 216.965942 101.181641 225.435059 107.836853 C 233.904297 114.492004 248.544922 109.046814 258.135986 95.674744 Z"/>
        <radialGradient id="radialGradient4" cx="269.171563" cy="131.452254" r="16.60472" fx="269.171563" fy="131.452254" gradientUnits="userSpaceOnUse">
            <stop offset="0" stop-color="#000000" stop-opacity="1"/>
            <stop offset="1" stop-color="#131313" stop-opacity="1"/>
        </radialGradient>
        <path id="path2" fill="url(#radialGradient4)" fill-opacity="0.707813" fill-rule="evenodd" stroke="none" d="M 271.546997 149.959473 C 285.883423 145.500366 295.644653 133.66394 293.349609 123.522217 C 291.054565 113.380615 277.572021 108.774109 263.235718 113.233337 C 248.899292 117.692505 239.137939 129.528931 241.433105 139.670593 C 243.728149 149.812256 257.210693 154.418762 271.546997 149.959473 Z"/>
        <radialGradient id="radialGradient5" cx="169.681759" cy="147.679677" r="34.139897" fx="169.681759" fy="147.679677" gradientUnits="userSpaceOnUse">
            <stop offset="0" stop-color="#000000" stop-opacity="1"/>
            <stop offset="1" stop-color="#131313" stop-opacity="1"/>
        </radialGradient>
        <path id="path3" fill="url(#radialGradient5)" fill-opacity="0.707813" fill-rule="evenodd" stroke="none" d="M 223.988281 169.80188 C 232.224731 144.023804 214.16626 115.223145 183.653442 105.473755 C 153.140625 95.724304 121.728149 108.71814 113.491577 134.496216 C 105.255127 160.274231 129.491943 177.165955 160.004761 186.915344 C 190.517578 196.664734 215.751709 195.579956 223.988281 169.80188 Z"/>
    </g>
    <text id="LOST--FOUND" xml:space="preserve" x="16" y="248" font-family="Arial" font-size="48" font-weight="700" fill="#000000" letter-spacing="0.48">LOST &amp; FOUND</text>
    <text id="PETS-DATABASE" xml:space="preserve" x="41" y="295" font-family="Arial" font-size="36" fill="#000000" letter-spacing="0.36">PETS DATABASE</text>
</svg>
